{"title":"The.Theory.of.Everything.2014.BRRip.480p.x264-VYTO [P2PDL]","uid":11691350,"size":509678201,"categoryP":"video","categoryS":"movies","magnet":"?xt=urn:btih:aac6dcc3e6ad3ec74c94466f6e7add3c4b9fa6ad&amp;dn=The.Theory.of.Everything.2014.BRRip.480p.x264-VYTO+%5BP2PDL%5D&amp;tr=udp%3A%2F%2Ftracker.openbittorrent.com%3A80&amp;tr=udp%3A%2F%2Fopen.demonii.com%3A1337&amp;tr=udp%3A%2F%2Ftracker.coppersurfer.tk%3A6969&amp;tr=udp%3A%2F%2Fexodus.desync.com%3A6969","seeders":4,"leechers":3,"uploader":"ValidusVyto","files":6,"time":1423553833,"description":"The.Theory.of.Everything.2014.BRRip.480p.x264-VYTO\n\n\nGenre: Biography | Drama | Romance\nIMDb: http://www.imdb.com/title/tt2980516/\n\nGeneral\nFormat                      : MPEG-4\nFile size                   : 481 MiB\nDuration                    : 2h 3mn\nOverall bit rate mode       : Variable\nOverall bit rate            : 545 Kbps\n\nVideo\nFormat                      : AVC\nBit rate                    : 510 Kbps\nWidth                       : 720 pixels\nHeight                      : 304 pixels\nDisplay aspect ratio        : 2.35:1\nFrame rate mode             : Constant\nFrame rate                  : 23.976 fps\nBit depth                   : 8 bits\nStream size                 : 450 MiB (94%)\nWriting library             : x264 core 142 r2491 24e4fed\n\nAudio\nFormat                      : AAC\nBit rate mode               : Variable\nBit rate                    : 32.0 Kbps\nChannel(s)                  : 2 channels\nChannel positions           : Front: L R \nSampling rate               : 48.0 KHz\nStream size                 : 28.2 MiB (6%)\nLanguage                    : English\n\nSubtitle                    : Yes(English)\nSource                      : 720p.BluRay.X264-AMIABLE\n &lt;a href=&quot;\nhttp://someimage.com/1BhQibp&quot; rel=&quot;nofollow&quot; target=&quot;_NEW&quot;&gt;\nhttp://someimage.com/1BhQibp&lt;/a&gt; &lt;a href=&quot;\nhttp://someimage.com/lJMIlzR&quot; rel=&quot;nofollow&quot; target=&quot;_NEW&quot;&gt;\nhttp://someimage.com/lJMIlzR&lt;/a&gt; &lt;a href=&quot;\nhttp://someimage.com/FUbBZnG&quot; rel=&quot;nofollow&quot; target=&quot;_NEW&quot;&gt;\nhttp://someimage.com/FUbBZnG&lt;/a&gt; &lt;a href=&quot;\nhttp://someimage.com/LaNpGNB&quot; rel=&quot;nofollow&quot; target=&quot;_NEW&quot;&gt;\nhttp://someimage.com/LaNpGNB&lt;/a&gt; &lt;a href=&quot;\nhttp://someimage.com/yqVzfEX&quot; rel=&quot;nofollow&quot; target=&quot;_NEW&quot;&gt;\nhttp://someimage.com/yqVzfEX&lt;/a&gt; &lt;a href=&quot;\nhttp://someimage.com/3ZdxBHN&quot; rel=&quot;nofollow&quot; target=&quot;_NEW&quot;&gt;\nhttp://someimage.com/3ZdxBHN&lt;/a&gt; &lt;a href=&quot;\nhttp://someimage.com/kj4wpb9&quot; rel=&quot;nofollow&quot; target=&quot;_NEW&quot;&gt;\nhttp://someimage.com/kj4wpb9&lt;/a&gt; &lt;a href=&quot;\nhttp://someimage.com/YEWChoB&quot; rel=&quot;nofollow&quot; target=&quot;_NEW&quot;&gt;\nhttp://someimage.com/YEWChoB&lt;/a&gt; &lt;a href=&quot;\nhttp://someimage.com/tWctSdg&quot; rel=&quot;nofollow&quot; target=&quot;_NEW&quot;&gt;\nhttp://someimage.com/tWctSdg&lt;/a&gt; &lt;a href=&quot;\nhttp://someimage.com/HCm9diL&quot; rel=&quot;nofollow&quot; target=&quot;_NEW&quot;&gt;\nhttp://someimage.com/HCm9diL&lt;/a&gt; &lt;a href=&quot;\nhttp://someimage.com/Vi54csk&quot; rel=&quot;nofollow&quot; target=&quot;_NEW&quot;&gt;\nhttp://someimage.com/Vi54csk&lt;/a&gt; &lt;a href=&quot;\nhttp://someimage.com/vei5xsD&quot; rel=&quot;nofollow&quot; target=&quot;_NEW&quot;&gt;\nhttp://someimage.com/vei5xsD&lt;/a&gt;\n\n\n----------------------------------------------------------------------------------------------------\n\n\nEncoder Notes: Looking For Early Access To Anything You Can Provide DVDScr, R5, DVDR, BluRay, Direct\nAudio, Music Releases and Seedboxes. If You Got anything to offer please contact us.\n\nWe require dedicated servers, so as to do more and fast releases of movies.\nSupport us by sending us LC - LezHMTo2cYaiztCCcWxB4cNFVNVpWW3GSx","torrent":{"xt":"urn:btih:aac6dcc3e6ad3ec74c94466f6e7add3c4b9fa6ad","amp;dn":"The.Theory.of.Everything.2014.BRRip.480p.x264-VYTO+%5BP2PDL%5D","amp;tr":["udp%3A%2F%2Ftracker.openbittorrent.com%3A80","udp%3A%2F%2Fopen.demonii.com%3A1337","udp%3A%2F%2Ftracker.coppersurfer.tk%3A6969","udp%3A%2F%2Fexodus.desync.com%3A6969"],"infoHash":"aac6dcc3e6ad3ec74c94466f6e7add3c4b9fa6ad","infoHashBuffer":{"type":"Buffer","data":[170,198,220,195,230,173,62,199,76,148,70,111,110,122,221,60,75,159,166,173]},"announce":[],"urlList":[]}}